<?xml version="1.0" encoding="UTF-8"?>
<svg version="1.1" xmlns="http://www.w3.org/2000/svg" width="214" height="153">
<path d="M0 0 C16.78494761 -0.07001145 33.56984979 -0.12294948 50.3549099 -0.15543652 C58.14811451 -0.17092024 65.94122853 -0.19203834 73.734375 -0.22631836 C80.52510786 -0.25617484 87.31577512 -0.27556405 94.10657179 -0.28226548 C97.70388572 -0.28618416 101.30101194 -0.29542441 104.89826584 -0.31719017 C108.90931352 -0.34126388 112.92003272 -0.34197243 116.93115234 -0.34057617 C118.13020706 -0.351362 119.32926178 -0.36214783 120.56465149 -0.3732605 C121.65282669 -0.36913651 122.74100189 -0.36501251 123.8621521 -0.36076355 C125.28632226 -0.36491162 125.28632226 -0.36491162 126.73926353 -0.36914349 C127.85832808 -0.18641746 127.85832808 -0.18641746 129 0 C131.10223697 3.15335545 131.25056585 3.88282986 131.25396729 7.4786377 C131.26242676 8.85403465 131.26242676 8.85403465 131.27105713 10.25721741 C131.26498444 11.76281471 131.26498444 11.76281471 131.25878906 13.29882812 C131.26404602 14.88696571 131.26404602 14.88696571 131.26940918 16.50718689 C131.27822885 20.01527415 131.27237642 23.5231606 131.265625 27.03125 C131.26697158 29.46358275 131.26891205 31.89591524 131.27142334 34.32824707 C131.27437493 39.42930663 131.27007579 44.53029622 131.26074219 49.63134766 C131.2493477 56.17880066 131.25590698 62.7260897 131.26788712 69.27353668 C131.27510474 74.29715211 131.27281822 79.3207285 131.26763153 84.34434509 C131.26629477 86.75894693 131.26794368 89.17355229 131.27259064 91.58815002 C131.27765419 94.95925321 131.26994782 98.33008869 131.25878906 101.70117188 C131.26283752 102.70490341 131.26688599 103.70863495 131.27105713 104.74278259 C131.26541748 105.6597139 131.25977783 106.5766452 131.25396729 107.5213623 C131.25283621 108.71707478 131.25283621 108.71707478 131.25168228 109.93694305 C131 112 131 112 129 115 C126.02974289 115.9900857 124.08878812 116.12794488 120.98986816 116.13371277 C119.9551387 116.13797775 118.92040924 116.14224274 117.85432434 116.14663696 C116.15236153 116.14595718 116.15236153 116.14595718 114.41601562 116.14526367 C113.22070724 116.14862228 112.02539886 116.1519809 110.79386902 116.15544128 C107.51501431 116.16332002 104.23619757 116.16661919 100.95733452 116.16725707 C98.22111755 116.16820648 95.48490666 116.17188502 92.74869204 116.17542917 C86.29486057 116.18357176 79.84104305 116.18601352 73.38720703 116.18530273 C66.72579773 116.18470152 60.06446929 116.19526243 53.40308046 116.2110464 C47.68581908 116.2241114 41.96858417 116.22948709 36.25130796 116.22884732 C32.83570736 116.22859209 29.42017866 116.23145732 26.0045929 116.24202538 C22.19765426 116.25177827 18.39092611 116.24896597 14.58398438 116.24291992 C13.4493425 116.24853943 12.31470062 116.25415894 11.14567566 116.25994873 C9.59358147 116.253657 9.59358147 116.253657 8.01013184 116.24723816 C6.65955814 116.24805531 6.65955814 116.24805531 5.28170013 116.24888897 C3 116 3 116 0 114 C-0.36914349 111.97352409 -0.36914349 111.97352409 -0.36076355 109.43161011 C-0.36488754 108.46964722 -0.36901154 107.50768433 -0.3732605 106.51657104 C-0.36247467 105.4577774 -0.35168884 104.39898376 -0.34057617 103.30810547 C-0.34101425 102.19590637 -0.34145233 101.08370728 -0.34190369 99.93780518 C-0.33980722 96.24742307 -0.31643527 92.55749061 -0.29296875 88.8671875 C-0.28737586 86.3141403 -0.28310432 83.76108989 -0.28010559 81.20803833 C-0.26980646 75.16605023 -0.24614246 69.12425629 -0.21605712 63.08234608 C-0.18255144 56.20458167 -0.16603678 49.32680959 -0.15097082 42.44898391 C-0.11959381 28.2992326 -0.06680943 14.14962518 0 0 Z M87.48046875 22.08984375 C86.50475731 23.84303501 85.5721352 25.62101049 84.6875 27.421875 C81.07514825 32.94074572 75.31333745 34.81672431 69.3125 36.875 C56.52412351 41.51797921 45.58934952 46.76619736 39.5 59.6875 C37.0508844 66.5493393 36.69009517 75.0702855 39 82 C38.195625 82.04125 37.39125 82.0825 36.5625 82.125 C31.73143124 83.31157829 27.61977215 85.55550103 24 89 C23.18219291 91.6079974 23.18219291 91.6079974 23 94 C26.09436733 94.95975029 27.4897231 95.24422127 30.46484375 93.8203125 C31.28082031 93.26085937 32.09679688 92.70140625 32.9375 92.125 C39.90400746 87.74400047 39.90400746 87.74400047 44 88 C46.6408633 89.11793734 49.12831605 90.37684914 51.6328125 91.7734375 C58.59098533 95.37882738 67.56356352 94.99535434 75.046875 93.31640625 C86.23178671 89.50911286 96.09491294 82.61637327 101.57421875 71.9296875 C106.58367428 60.2457425 108.54491042 46.19440341 104.375 33.875 C102.14308231 28.69119117 98.9990616 23.9990616 95 20 C91.46112394 19.09470612 89.70406396 19.03168581 87.48046875 22.08984375 Z " fill="#A4C639" transform="translate(0,0)"/>
<path d="M0 0 C1.17046875 0.03609375 2.3409375 0.0721875 3.546875 0.109375 C4.43890625 0.15578125 5.3309375 0.2021875 6.25 0.25 C6.26401855 1.81681519 6.26401855 1.81681519 6.27832031 3.4152832 C6.31818874 7.290229 6.38393741 11.16437814 6.45751953 15.03881836 C6.48574768 16.7157976 6.5069531 18.39291035 6.52099609 20.07006836 C6.54240125 22.48100218 6.58903426 24.89032784 6.640625 27.30078125 C6.64185364 28.05087967 6.64308228 28.80097809 6.64434814 29.57380676 C6.73009954 32.62010556 6.86523826 34.73459347 8.71679688 37.21484375 C12.57445206 38.79121788 16.25834574 38.73111951 20.390625 38.76171875 C21.56407471 38.78667419 21.56407471 38.78667419 22.76123047 38.81213379 C25.67388225 38.86981704 28.58699149 38.90215684 31.5 38.9375 C41.27625 39.0921875 41.27625 39.0921875 51.25 39.25 C51.25 55.75 51.25 72.25 51.25 89.25 C47.92611853 90.91194073 45.92295631 90.86215938 42.25 90.25 C40.4556979 88.13228049 39.13258464 85.90661452 37.7265625 83.515625 C35.09908832 79.48405086 31.79073619 77.76357873 27.25 76.25 C18.52022408 75.64392744 12.38260756 75.69403536 5.5625 81.5625 C3.19122851 84.31830201 1.71456795 86.93545149 0.25 90.25 C-3.38 90.25 -7.01 90.25 -10.75 90.25 C-10.84263613 79.10614696 -10.91373262 67.96238536 -10.95724869 56.81822586 C-10.97813313 51.64365296 -11.00646658 46.46934328 -11.05175781 41.29492188 C-11.09518476 36.30230875 -11.11913065 31.30994897 -11.12950897 26.31716156 C-11.136906 24.41132366 -11.15135054 22.50549979 -11.17292023 20.59976959 C-11.20191246 17.932418 -11.20595778 15.26611634 -11.20410156 12.59863281 C-11.21848267 11.8088504 -11.23286377 11.01906799 -11.24768066 10.20535278 C-11.22105766 6.67517115 -11.03518551 4.6399915 -8.92376709 1.75262451 C-5.87328714 -0.356031 -3.66442554 -0.14657702 0 0 Z " fill="#A4C639" transform="translate(162.75,40.75)"/>
<path d="M0 0 C3 1 3 1 4.1328125 2.671875 C4.62394531 3.70054688 4.62394531 3.70054688 5.125 4.75 C5.45757812 5.42546875 5.79015625 6.1009375 6.1328125 6.796875 C9.9341243 16.45426174 8.38637754 27.46467377 5 37 C0.49312537 46.68295185 -6.04163523 53.1169809 -16 57 C-23.46750439 59.50269622 -30.65433958 59.47752454 -38.125 56.9375 C-38.74375 56.628125 -39.3625 56.31875 -40 56 C-40 55.34 -40 54.68 -40 54 C-38.88882813 53.443125 -37.77765625 52.88625 -36.6328125 52.3125 C-19.07897844 43.38712945 -19.07897844 43.38712945 -6 29 C-5.75932991 26.34031453 -5.75932991 26.34031453 -6 24 C-8.88463503 24.34399396 -10.5704735 24.60425648 -12.73828125 26.6015625 C-13.25777344 27.26929687 -13.77726562 27.93703125 -14.3125 28.625 C-23.01360906 39.09994031 -33.85474096 46.27550994 -47 50 C-49.10403006 42.09705782 -47.58851427 36.16514604 -44 29 C-39.20583686 21.44556111 -31.36863972 18.35050177 -23.3046875 15.0546875 C-22.47275879 14.71421387 -21.64083008 14.37374023 -20.78369141 14.02294922 C-19.13288665 13.35645549 -17.47644883 12.70369688 -15.81396484 12.06689453 C-9.15031154 9.40832427 -4.02027631 6.03041447 0 0 Z " fill="#A4C639" transform="translate(92,29)"/>
<path d="M0 0 C4.7953125 -0.1546875 4.7953125 -0.1546875 9.6875 -0.3125 C11.18543091 -0.38078003 11.18543091 -0.38078003 12.71362305 -0.45043945 C17.00772968 -0.51750107 19.30855838 -0.48708843 22.89453125 2.0390625 C25.32870494 5.46226038 27.21984973 8.89205988 29 12.6875 C29.68593853 14.11080212 30.3721364 15.53397928 31.05859375 16.95703125 C31.38714355 17.64619629 31.71569336 18.33536133 32.05419922 19.04541016 C33.71034785 22.46800332 35.50342355 25.82114983 37.28515625 29.1796875 C37.52105469 29.78039062 37.75695312 30.38109375 38 31 C37.67 31.66 37.34 32.32 37 33 C18.685 32.505 18.685 32.505 0 32 C0 21.44 0 10.88 0 0 Z " fill="#A4C639" transform="translate(175,41)"/>
<path d="M0 0 C30.03 0 60.06 0 91 0 C91 2.97 91 5.94 91 9 C62.29 9 33.58 9 4 9 C0 2 0 2 0 0 Z " fill="#A4C639" transform="translate(55,122)"/>
<path d="M0 0 C4.33614219 2.2521773 6.87886137 4.86514289 9.0625 9.31640625 C10.43365472 14.11544777 10.54793655 18.0274756 8.5 22.62890625 C6.24570569 26.43160474 4.21337696 28.53745898 0.0625 30.31640625 C-5.52112338 31.05270823 -10.25596777 31.06709028 -15.4375 28.75390625 C-19.52180391 24.77170994 -22.1185731 21.08483088 -22.375 15.25390625 C-21.75245992 9.65104554 -20.16663202 6.18598637 -15.9375 2.50390625 C-11.10724286 -1.01815625 -5.70181627 -2.01172953 0 0 Z " fill="#A4C639" transform="translate(43.9375,122.68359375)"/>
<path d="M0 0 C4.04833735 2.38269302 7.03254271 4.57610986 8.8046875 9.05859375 C10.17533659 15.12861116 9.96211739 18.48046761 6.8046875 24.05859375 C1.6373407 29.8561048 1.6373407 29.8561048 -2.98828125 30.3671875 C-13.28166542 30.75807551 -13.28166542 30.75807551 -17.3828125 27.30859375 C-20.99601983 23.68623906 -22.490604 20.30087933 -22.5703125 15.18359375 C-22.46434798 10.37986878 -21.43380018 7.7347149 -18.1953125 4.05859375 C-12.9052879 -0.71533089 -6.84796639 -2.93658345 0 0 Z " fill="#A4C639" transform="translate(190.1953125,122.94140625)"/>
<path d="M0 0 C6.93 0 13.86 0 21 0 C19 5 19 5 17 9 C11.39 9 5.78 9 0 9 C0 6.03 0 3.06 0 0 Z " fill="#A4C639" transform="translate(0,122)"/>
</svg>
