<?xml version="1.0" encoding="UTF-8"?>
<svg version="1.1" xmlns="http://www.w3.org/2000/svg" width="210" height="192">
<path d="M0 0 C0.705521 13.9797679 -3.73963347 24.22342159 -13.0625 34.75 C-20.47859326 41.68170879 -31.02780227 45.87410671 -41 47 C-42.12910688 58.70114704 -42.12910688 58.70114704 -38 69.25 C-37.443125 69.87390625 -36.88625 70.4978125 -36.3125 71.140625 C-34.62178588 73.53580334 -34.76274407 75.13315756 -35 78 C-37.475 78.495 -37.475 78.495 -40 79 C-40.43570313 78.35933594 -40.87140625 77.71867187 -41.3203125 77.05859375 C-42.56260442 75.25431262 -43.82424716 73.46325247 -45.1015625 71.68359375 C-47 69 -47 69 -48.2734375 66.84765625 C-50.61230411 63.3244591 -52.17819563 62.17684398 -56.39453125 61.26953125 C-58.36882649 61.03922961 -60.34353118 60.80958647 -62.32250977 60.6237793 C-71.85041997 59.72837401 -78.48771053 55.95009044 -85 49 C-89.54240749 43.50961181 -91.7401046 39.14712351 -92 32 C-84.63789636 28.20020457 -75.65754501 29.71207497 -68 32 C-58.29697208 36.02455135 -58.29697208 36.02455135 -55 40 C-55 40.66 -55 41.32 -55 42 C-54.01 42.33 -53.02 42.66 -52 43 C-50.3125 46.0625 -50.3125 46.0625 -49 49 C-47.86278972 45.58836917 -47.85416382 44.30435376 -49.4375 41 C-52.31137011 34.86462148 -52.07249013 27.57993234 -50.15625 21.18359375 C-46.13023965 12.27468571 -38.99013332 6.51787826 -30 3 C-29.2471875 2.7009375 -28.494375 2.401875 -27.71875 2.09375 C-18.70506885 -0.91081038 -9.37452935 -0.26229253 0 0 Z " fill="#AAC352" transform="translate(210,2)"/>
<path d="M0 0 C1.15677451 3.09044965 0.94446815 5.33319643 0.2578125 8.51953125 C0.07863281 9.37740234 -0.10054687 10.23527344 -0.28515625 11.11914062 C-0.57712891 12.45235352 -0.57712891 12.45235352 -0.875 13.8125 C-1.2491934 15.56862835 -1.62162271 17.32513363 -1.9921875 19.08203125 C-2.26240723 20.33814209 -2.26240723 20.33814209 -2.53808594 21.61962891 C-2.95247549 23.75509305 -3.22246216 25.84984648 -3.4453125 28.01171875 C-3.62835938 28.99785156 -3.81140625 29.98398437 -4 31 C-7 33 -7 33 -9.125 32.6875 C-11 32 -11 32 -12 31 C-12.19153637 25.54121353 -11.77170969 20.40196781 -11 15 C-25.54757704 31.4434049 -32.38485764 49.39166178 -32.5 71.25 C-32.50966797 72.98963013 -32.50966797 72.98963013 -32.51953125 74.7644043 C-32.34696774 86.44977475 -30.04126823 97.07224929 -24.875 107.5625 C-24.48103027 108.37332031 -24.08706055 109.18414062 -23.68115234 110.01953125 C-14.33510527 128.68932867 1.44027772 144.96420903 21.35546875 152.1640625 C41.38151482 158.49430454 64.47558817 162.17960485 84.66015625 153.91015625 C87.8451153 152.67126567 90.61818358 152.80489521 94 153 C95 154 95 154 95.0625 156.5625 C95.041875 157.366875 95.02125 158.17125 95 159 C86.94664403 162.91731142 78.12939073 166.74022087 69 166 C69 166.66 69 167.32 69 168 C60.09 168 51.18 168 42 168 C42 167.34 42 166.68 42 166 C41.39921631 165.96406738 40.79843262 165.92813477 40.17944336 165.89111328 C33.62062634 165.38293327 27.77704119 163.99652171 21.5625 161.875 C20.64235107 161.56296631 19.72220215 161.25093262 18.77416992 160.92944336 C11.82766999 158.48073912 5.8506654 155.52230064 0 151 C-0.84433594 150.37222656 -1.68867187 149.74445313 -2.55859375 149.09765625 C-19.40463439 136.14902532 -34.51826621 117.32973304 -39 96 C-39.20178054 93.27596267 -39.14926822 90.73658402 -39 88 C-39.66 88 -40.32 88 -41 88 C-41.02465288 83.31860746 -41.04283739 78.63725241 -41.05493164 73.95581055 C-41.05997157 72.36205386 -41.0668035 70.76830181 -41.07543945 69.17456055 C-41.08751999 66.88849747 -41.09323155 64.60249533 -41.09765625 62.31640625 C-41.10281754 61.59973282 -41.10797882 60.88305939 -41.11329651 60.14466858 C-41.11349263 58.42936328 -41.06192007 56.71418734 -41 55 C-40.505 54.505 -40.505 54.505 -40 54 C-39.72251758 52.58845901 -39.47906484 51.17020201 -39.25 49.75 C-37.74125636 41.81766601 -34.73176654 34.15255253 -31 27 C-30.34 27 -29.68 27 -29 27 C-28.67 25.35 -28.34 23.7 -28 22 C-27.34 22 -26.68 22 -26 22 C-26 21.01 -26 20.02 -26 19 C-25.34 19 -24.68 19 -24 19 C-23.87625 18.38125 -23.7525 17.7625 -23.625 17.125 C-23 15 -23 15 -21 13 C-21.845625 13.350625 -22.69125 13.70125 -23.5625 14.0625 C-27.45017533 15.12277509 -30.08425639 14.78314872 -34 14 C-34 12.35 -34 10.7 -34 9 C-27.22406475 5.20077619 -20.47618882 2.27293261 -13.0625 0 C-12.3413501 -0.23162842 -11.6202002 -0.46325684 -10.87719727 -0.7019043 C-6.63769074 -1.93927223 -3.78295447 -2.52675517 0 0 Z " fill="#AAC352" transform="translate(41,24)"/>
<path d="M0 0 C4.19099574 1.71669633 5.37607283 6.89113322 7.03125 10.83203125 C15.12326523 30.79789702 15.24811994 54.32007298 7.84375 74.58203125 C2.0270004 88.25313436 -5.03208762 100.57891026 -15.96875 110.83203125 C-15.19789063 110.66445312 -14.42703125 110.496875 -13.6328125 110.32421875 C-12.12847656 110.01871094 -12.12847656 110.01871094 -10.59375 109.70703125 C-9.09714844 109.39378906 -9.09714844 109.39378906 -7.5703125 109.07421875 C-6.28253906 108.95433594 -6.28253906 108.95433594 -4.96875 108.83203125 C-2.96875 110.83203125 -2.96875 110.83203125 -2.96875 113.26953125 C-3.96875 115.83203125 -3.96875 115.83203125 -6.51171875 117.35546875 C-10.39475215 119.01398471 -14.17495907 120.08292063 -18.28125 121.01953125 C-19.03019531 121.19315186 -19.77914062 121.36677246 -20.55078125 121.5456543 C-25.79829392 122.70550492 -30.5826509 123.31293295 -35.96875 122.83203125 C-36.29875 122.50203125 -36.62875 122.17203125 -36.96875 121.83203125 C-36.50646599 114.72441463 -34.89655878 108.17029636 -32.96875 101.33203125 C-32.69546875 100.33171875 -32.4221875 99.33140625 -32.140625 98.30078125 C-30.10949248 90.97277373 -30.10949248 90.97277373 -28.96875 89.83203125 C-26.53125 89.64453125 -26.53125 89.64453125 -23.96875 89.83203125 C-23.30875 90.49203125 -22.64875 91.15203125 -21.96875 91.83203125 C-22.34965755 97.35519077 -23.53893225 102.49404499 -24.96875 107.83203125 C-23.18811266 106.13301906 -21.41967578 104.42375849 -19.65625 102.70703125 C-19.15673828 102.23265625 -18.65722656 101.75828125 -18.14257812 101.26953125 C-14.88383016 98.07552662 -12.81438576 95.0776234 -10.96875 90.83203125 C-10.30875 90.83203125 -9.64875 90.83203125 -8.96875 90.83203125 C-8.82373047 89.78982422 -8.82373047 89.78982422 -8.67578125 88.7265625 C-7.83303723 85.27643367 -6.36460131 82.63260827 -4.65625 79.51953125 C4.77987972 61.12912703 6.4192448 38.69247175 0.19140625 18.9375 C-1.1943722 15.22809303 -2.64163241 11.56235477 -4.33203125 7.98046875 C-5.14252768 5.24566483 -4.82915454 3.52827221 -3.96875 0.83203125 C-1.96875 -0.16796875 -1.96875 -0.16796875 0 0 Z " fill="#AAC352" transform="translate(180.96875,52.16796875)"/>
<path d="M0 0 C10.89 0 21.78 0 33 0 C33 0.66 33 1.32 33 2 C34.7325 2.061875 34.7325 2.061875 36.5 2.125 C50.1259647 3.70296774 62.45124138 11.0891737 74 18 C74.042721 19.66611905 74.04063832 21.33382885 74 23 C73.505 23.495 73.505 23.495 73 24 C66.88715575 23.6577444 62.38731538 21.45242721 57 18.6875 C48.78783355 14.63455573 40.98039759 11.83182239 32 10 C31.29359375 9.85046875 30.5871875 9.7009375 29.859375 9.546875 C27.88918224 9.22136489 25.99670492 9.08290816 24 9 C22.84242187 8.9484375 21.68484375 8.896875 20.4921875 8.84375 C4.93641451 8.38222824 -10.34974781 11.5150562 -24.25390625 18.67578125 C-27 20 -27 20 -29.375 19.6875 C-29.91125 19.460625 -30.4475 19.23375 -31 19 C-31.33 17.35 -31.66 15.7 -32 14 C-23.85162941 7.0093214 -10.8859085 1.63521647 0 2 C0 1.34 0 0.68 0 0 Z " fill="#AAC352" transform="translate(80,0)"/>
</svg>
