<?xml version="1.0" encoding="UTF-8"?>
<svg version="1.1" xmlns="http://www.w3.org/2000/svg" width="211" height="199">
<path d="M0 0 C1.68216214 0.00031737 3.36434441 0.01165683 5.04638672 0.03173828 C6.37390457 0.03598312 6.37390457 0.03598312 7.72824097 0.04031372 C10.56098834 0.05152838 13.39342206 0.07663508 16.22607422 0.10205078 C18.14403841 0.11207893 20.06200755 0.12120507 21.97998047 0.12939453 C26.68713298 0.15147189 31.39405038 0.18601033 36.10107422 0.22705078 C38.14271549 4.15822035 39.48865563 7.16325573 39.78857422 11.60205078 C39.85431641 12.47603516 39.92005859 13.35001953 39.98779297 14.25048828 C40.04386719 15.22888672 40.04386719 15.22888672 40.10107422 16.22705078 C40.64634766 16.32501953 41.19162109 16.42298828 41.75341797 16.52392578 C46.20606644 17.40684411 49.56973294 18.45139714 53.47607422 20.78955078 C55.65724917 21.99271155 55.65724917 21.99271155 58.10107422 22.22705078 C61.25729935 20.74023398 63.78899653 18.96365024 66.52294922 16.80126953 C69.10107422 15.22705078 69.10107422 15.22705078 71.39208984 15.29174805 C75.07781025 16.56427823 77.34506685 18.89792709 80.02294922 21.61767578 C80.56840393 22.15930359 81.11385864 22.7009314 81.67584229 23.25897217 C82.82364856 24.40406271 83.9664439 25.55419535 85.10449219 26.70898438 C86.8452774 28.47118266 88.60635752 30.21103502 90.37060547 31.94970703 C91.48517147 33.06691637 92.59849596 34.18536595 93.71044922 35.30517578 C94.23644714 35.82307678 94.76244507 36.34097778 95.30438232 36.87457275 C98.19141351 39.83676641 99.98636669 42.00527609 100.10107422 46.22705078 C98.49169922 48.95361328 98.49169922 48.95361328 96.35107422 51.85205078 C93.5066563 56.25295977 93.5066563 56.25295977 93.67529297 61.27783203 C94.99099747 64.06380804 96.47725175 66.61158101 98.10107422 69.22705078 C98.34857422 70.11005859 98.59607422 70.99306641 98.85107422 71.90283203 C99.96958023 74.57109177 99.96958023 74.57109177 103.32373047 75.55517578 C104.59087891 75.85939453 105.85802734 76.16361328 107.16357422 76.47705078 C114.05923886 78.18521542 114.05923886 78.18521542 115.10107422 79.22705078 C115.21460438 82.16070825 115.26526129 85.0699354 115.26904297 88.00439453 C115.27237137 88.88607803 115.27569977 89.76776154 115.27912903 90.67616272 C115.28420205 92.54492672 115.28653724 94.41369982 115.28637695 96.2824707 C115.2885623 99.14891422 115.30671077 102.01497238 115.32568359 104.88134766 C115.32861761 106.69319529 115.33060235 108.50504476 115.33154297 110.31689453 C115.33872849 111.17838608 115.345914 112.03987762 115.35331726 112.92747498 C115.32989582 118.99822918 115.32989582 118.99822918 113.10107422 121.22705078 C110.74427247 121.84309728 108.36475501 122.37431462 105.97607422 122.85205078 C104.69474609 123.11244141 103.41341797 123.37283203 102.09326172 123.64111328 C101.10583984 123.83447266 100.11841797 124.02783203 99.10107422 124.22705078 C98.94638672 125.29052734 98.94638672 125.29052734 98.78857422 126.37548828 C98.01763676 129.57312662 96.65885032 131.96237611 95.10107422 134.85205078 C93.59940395 137.95171474 93.59940395 137.95171474 93.10107422 141.22705078 C94.48939743 144.57359532 96.18844271 146.96779039 98.49169922 149.75439453 C100.10107422 152.22705078 100.10107422 152.22705078 100.05004883 154.4934082 C98.73667269 158.27675593 96.29837789 160.65977922 93.52685547 163.43798828 C92.6846772 164.29657944 92.6846772 164.29657944 91.82548523 165.17251587 C90.63780473 166.37602964 89.44478102 167.57429084 88.24682617 168.76757812 C86.41761258 170.59800973 84.61970295 172.45578461 82.82177734 174.31689453 C81.66276579 175.48404508 80.50201448 176.64947111 79.33935547 177.81298828 C78.80474197 178.37118256 78.27012848 178.92937683 77.71931458 179.50448608 C76.15307617 181.03320312 76.15307617 181.03320312 73.10107422 183.22705078 C67.97758408 183.09331432 65.11897469 181.14214275 61.12841797 178.18798828 C58.35812973 176.87490368 57.0261009 177.39622329 54.10107422 178.22705078 C52.50392578 178.59056641 52.50392578 178.59056641 50.87451172 178.96142578 C47.21406873 180.05535127 44.29115302 181.10605627 41.10107422 183.22705078 C39.59678342 186.64706233 39.06849438 189.55822809 38.69091797 193.26611328 C38.10107422 196.22705078 38.10107422 196.22705078 36.57202148 197.88720703 C33.10007045 199.76983397 29.82751536 199.65649687 25.97607422 199.62548828 C24.80020752 199.62979355 24.80020752 199.62979355 23.60058594 199.63418579 C21.94644446 199.63622342 20.29227872 199.63071459 18.63818359 199.61816406 C16.10963951 199.60210518 13.58269372 199.61802196 11.05419922 199.63720703 C9.4448207 199.63522454 7.83544317 199.63138075 6.22607422 199.62548828 C5.47181152 199.63156097 4.71754883 199.63763367 3.94042969 199.64389038 C0.77770626 199.6016193 -1.52536331 199.42971752 -4.33032227 197.90795898 C-8.22654675 193.73278302 -8.61302797 186.73916063 -8.89892578 181.22705078 C-7.7998303 177.95747262 -6.30571904 175.68088234 -3.89892578 173.22705078 C-1.32980549 174.21435734 -0.13920527 174.76262997 1.14794922 177.25048828 C1.37998047 178.02650391 1.61201172 178.80251953 1.85107422 179.60205078 C2.09341797 180.37291016 2.33576172 181.14376953 2.58544922 181.93798828 C3.10107422 184.22705078 3.10107422 184.22705078 3.10107422 188.22705078 C11.68107422 188.22705078 20.26107422 188.22705078 29.10107422 188.22705078 C29.43107422 185.25705078 29.76107422 182.28705078 30.10107422 179.22705078 C30.61669922 176.39111328 30.61669922 176.39111328 32.10107422 174.22705078 C34.89413193 172.65615043 37.82512076 171.63623741 40.85107422 170.60205078 C42.45098388 170.0291799 44.04996434 169.45370649 45.64794922 168.87548828 C46.79324097 168.46689575 46.79324097 168.46689575 47.96166992 168.05004883 C50.35172781 167.17059264 50.35172781 167.17059264 53.50341797 165.52001953 C57.00983301 163.77472122 58.38550108 163.9885264 62.10107422 165.22705078 C65.21395072 167.07739773 68.17242934 169.09890217 71.10107422 171.22705078 C71.36388184 170.63827148 71.62668945 170.04949219 71.89746094 169.44287109 C73.15723603 167.12365837 74.48111443 165.61755675 76.35888672 163.77392578 C76.98408203 163.15517578 77.60927734 162.53642578 78.25341797 161.89892578 C79.22988281 160.94759766 79.22988281 160.94759766 80.22607422 159.97705078 C80.88478516 159.32736328 81.54349609 158.67767578 82.22216797 158.00830078 C83.84404064 156.40993351 85.47040232 154.81643181 87.10107422 153.22705078 C86.66794922 152.56318359 86.23482422 151.89931641 85.78857422 151.21533203 C85.23169922 150.33232422 84.67482422 149.44931641 84.10107422 148.53955078 C83.54419922 147.66943359 82.98732422 146.79931641 82.41357422 145.90283203 C80.95838643 142.93615454 80.63721362 141.47911692 81.10107422 138.22705078 C82.27294922 135.50048828 82.27294922 135.50048828 83.85107422 132.60205078 C86.05339259 128.47780179 87.6082059 124.66397309 88.85107422 120.16455078 C89.95237294 116.92598589 90.4431018 115.60902806 93.42919922 113.87548828 C97.45785996 112.61505934 100.87010118 112.22705078 105.10107422 112.22705078 C104.77107422 103.97705078 104.44107422 95.72705078 104.10107422 87.22705078 C100.14107422 86.23705078 96.18107422 85.24705078 92.10107422 84.22705078 C89.01942145 79.09096284 87.27855685 74.24212734 85.38232422 68.60205078 C84.22421102 65.24387449 84.22421102 65.24387449 82.44482422 62.49658203 C81.10107422 60.22705078 81.10107422 60.22705078 81.10107422 56.91455078 C81.99121096 53.63217155 82.86040249 51.78514088 84.66357422 48.99658203 C85.11861328 48.28735596 85.57365234 47.57812988 86.04248047 46.84741211 C86.39181641 46.31269287 86.74115234 45.77797363 87.10107422 45.22705078 C84.53815572 42.51942267 81.94772218 39.83981698 79.35107422 37.16455078 C78.25666016 36.00729492 78.25666016 36.00729492 77.14013672 34.82666016 C76.43115234 34.1015625 75.72216797 33.37646484 74.99169922 32.62939453 C74.34233398 31.95384521 73.69296875 31.2782959 73.02392578 30.58227539 C71.21384195 29.00131564 71.21384195 29.00131564 69.06494141 29.3815918 C66.79855347 30.29399991 66.79855347 30.29399991 63.78857422 32.35205078 C61.06405504 33.92788497 60.0789535 34.22746815 56.78857422 34.28955078 C52.76525501 33.13028932 49.41308237 31.45385178 45.73388672 29.48486328 C43.06075367 28.20778785 40.5298361 27.45406181 37.66357422 26.72705078 C34.5943261 25.84668651 33.33243781 25.45841437 31.03857422 23.16455078 C30.10107422 20.22705078 30.10107422 20.22705078 29.10107422 10.22705078 C20.52107422 10.22705078 11.94107422 10.22705078 3.10107422 10.22705078 C2.77107422 13.19705078 2.44107422 16.16705078 2.10107422 19.22705078 C1.24371665 22.43018568 0.8926333 23.72814322 -1.91430664 25.49731445 C-3.12679077 25.94167847 -3.12679077 25.94167847 -4.36376953 26.39501953 C-5.24613281 26.73082031 -6.12849609 27.06662109 -7.03759766 27.41259766 C-7.96121094 27.74324219 -8.88482422 28.07388672 -9.83642578 28.41455078 C-11.65907199 29.09277442 -13.48073192 29.77365602 -15.30126953 30.45751953 C-16.51544556 30.89680786 -16.51544556 30.89680786 -17.75415039 31.3449707 C-20.13308669 32.24121855 -20.13308669 32.24121855 -22.89892578 34.22705078 C-28.46695783 34.01693636 -31.36044583 32.25270408 -35.89892578 29.22705078 C-39.33308566 29.55100397 -40.95415995 30.93989172 -43.28173828 33.38720703 C-44.19632813 34.32983398 -44.19632813 34.32983398 -45.12939453 35.29150391 C-46.0671875 36.28053711 -46.0671875 36.28053711 -47.02392578 37.28955078 C-48.27195747 38.59731515 -49.52434828 39.90093795 -50.78173828 41.19970703 C-51.3323291 41.77986572 -51.88291992 42.36002441 -52.45019531 42.95776367 C-53.89892578 44.22705078 -53.89892578 44.22705078 -55.89892578 44.22705078 C-55.14095703 45.33113281 -55.14095703 45.33113281 -54.36767578 46.45751953 C-53.71798828 47.43333984 -53.06830078 48.40916016 -52.39892578 49.41455078 C-51.74923828 50.37748047 -51.09955078 51.34041016 -50.43017578 52.33251953 C-48.82325106 55.37009917 -48.40115997 56.86147515 -48.89892578 60.22705078 C-49.55892578 61.21705078 -50.21892578 62.20705078 -50.89892578 63.22705078 C-55.36583228 62.71654718 -57.59027653 61.2234683 -60.89892578 58.22705078 C-62.95361328 55.38720703 -62.95361328 55.38720703 -64.77392578 52.28955078 C-65.39009766 51.26990234 -66.00626953 50.25025391 -66.64111328 49.19970703 C-68.11760932 45.71022416 -68.10545257 44.76458732 -66.89892578 41.22705078 C-65.15714553 39.09820825 -63.4567177 37.22359984 -61.50830078 35.30517578 C-60.69585907 34.48699371 -60.69585907 34.48699371 -59.86700439 33.65228271 C-58.72191385 32.50447644 -57.57178121 31.3616811 -56.41699219 30.22363281 C-54.6547939 28.4828476 -52.91494154 26.72176748 -51.17626953 24.95751953 C-50.05906019 23.84295353 -48.94061061 22.72962904 -47.82080078 21.61767578 C-47.30289978 21.09167786 -46.78499878 20.56567993 -46.25140381 20.02374268 C-43.29453707 17.14190324 -41.11770022 15.33487599 -36.89892578 15.22705078 C-34.60205078 16.90673828 -34.60205078 16.90673828 -32.14892578 19.10205078 C-29.31963155 21.0268985 -27.26884547 22.31858919 -23.77978516 22.08544922 C-18.38065062 20.91788057 -13.10848462 18.87229846 -8.89892578 15.22705078 C-7.09680117 11.67715799 -6.51163917 8.96689803 -6.15283203 5.02001953 C-5.73676848 0.44332046 -4.49039161 0.26149431 0 0 Z " fill="#053F33" transform="translate(95.89892578125,-0.22705078125)"/>
<path d="M0 0 C1.6076807 14.93803316 -3.48239779 28.97618524 -12.3984375 41.0390625 C-12.92695312 41.68617187 -13.45546875 42.33328125 -14 43 C-14.63164063 43.79148438 -15.26328125 44.58296875 -15.9140625 45.3984375 C-25.09757763 56.25168266 -37.32756659 66.87476542 -52.0390625 68.29296875 C-54.38788525 68.30950976 -56.66458484 68.23723179 -59 68 C-59.73046875 66.4609375 -59.73046875 66.4609375 -60 64 C-58.8685634 61.40968262 -57.70070558 59.06939665 -56.3125 56.625 C-55.78366211 55.65433594 -55.78366211 55.65433594 -55.24414062 54.6640625 C-53.02111385 50.63254044 -50.60322771 46.79612889 -48 43 C-52.97620466 48.91615443 -57.71154741 54.72760832 -61.61328125 61.41796875 C-62.07089844 61.94003906 -62.52851562 62.46210938 -63 63 C-64.32 63 -65.64 63 -67 63 C-67.57568284 52.20274857 -67.40503709 43.70169948 -62 34 C-61.48050781 33.05511719 -60.96101563 32.11023438 -60.42578125 31.13671875 C-50.36427333 14.17991169 -35.83599627 6.28696349 -17.359375 1.28515625 C-3.88445626 -1.94222813 -3.88445626 -1.94222813 0 0 Z " fill="#053F33" transform="translate(132,69)"/>
<path d="M0 0 C18.86949225 1.21664609 35.74208418 7.32818887 48.7734375 21.33203125 C56.24623964 30.14760253 62.32644918 42.26462097 62.67578125 54.05078125 C62.3984375 56.51953125 62.3984375 56.51953125 61.5859375 60.01953125 C59.6059375 60.51453125 59.6059375 60.51453125 57.5859375 61.01953125 C57.07804687 60.23449219 56.57015625 59.44945312 56.046875 58.640625 C52.19341287 52.7594047 48.31679998 47.22347998 43.5859375 42.01953125 C44.15699219 42.86257812 44.72804687 43.705625 45.31640625 44.57421875 C47.62018581 48.03547732 49.79071119 51.5610112 51.8984375 55.14453125 C52.4562793 56.05525391 52.4562793 56.05525391 53.02539062 56.984375 C55.64728673 61.46649907 55.64728673 61.46649907 55.31640625 64.44921875 C55.07535156 64.96742188 54.83429687 65.485625 54.5859375 66.01953125 C42.82346983 67.53184852 33.54399552 62.25652518 24.3984375 55.33203125 C9.59252273 42.61693532 -1.6250354 26.36531575 -3.68359375 6.40625 C-3.7265625 4.20703125 -3.7265625 4.20703125 -3.4140625 1.01953125 C-2.4140625 0.01953125 -2.4140625 0.01953125 0 0 Z M39.5859375 37.01953125 C40.5859375 39.01953125 40.5859375 39.01953125 40.5859375 39.01953125 Z " fill="#053F33" transform="translate(3.4140625,90.98046875)"/>
<path d="M0 0 C12.71827897 9.89822005 22.17420526 22.83352768 25 39 C26.08797896 50.42923718 25.47920178 61.33594013 21 72 C20.67257813 72.85464844 20.34515625 73.70929688 20.0078125 74.58984375 C14.10682469 88.22241777 1.06918103 99.32748933 -12.38671875 105.00390625 C-22.45839706 108.84288677 -33.37207516 109.87551615 -44 108 C-43.37530495 106.64649406 -42.69429379 105.3191582 -42 104 C-41.49726562 102.99066406 -40.99453125 101.98132813 -40.4765625 100.94140625 C-37.46930772 97.36969829 -36.05387952 97.22041188 -31.60327148 96.76342773 C-30.78544189 96.69712158 -29.9676123 96.63081543 -29.125 96.5625 C-16.22765018 94.9907315 -6.10330069 90.49047218 2.87890625 80.7265625 C11.54150116 69.5912195 15.03753852 56.37049688 13.56640625 42.41796875 C11.23254111 28.33429978 4.48589166 17.49122024 -7 9 C-18.027812 1.8225766 -31.14785154 -0.31656009 -44 2 C-57.48845175 5.23056746 -68.56164425 12.67385013 -76 24.5 C-76.66 25.655 -77.32 26.81 -78 28 C-80.97 26.35 -83.94 24.7 -87 23 C-82.53015404 10.57164783 -71.31464716 1.1123362 -60 -5 C-40.19337601 -13.60366475 -18.07548724 -12.0861356 0 0 Z " fill="#053F33" transform="translate(146,50)"/>
<path d="M0 0 C12.97220121 -0.67290957 22.21425454 1.20762395 32 10 C38.0663763 15.96598709 43.76647565 23.83495724 44.09765625 32.578125 C44.08605469 33.45984375 44.07445312 34.3415625 44.0625 35.25 C44.05347656 36.14203125 44.04445312 37.0340625 44.03515625 37.953125 C44.02355469 38.62859375 44.01195312 39.3040625 44 40 C42.68 40 41.36 40 40 40 C39.67 40.99 39.34 41.98 39 43 C31.14820839 43.90597596 25.53738808 41.26208025 19 37 C9.34373246 29.20215586 2.41267463 19.30464063 0 7 C-0.02463784 4.66679675 -0.02761148 2.33316996 0 0 Z M35 32 C36 34 36 34 36 34 Z M36 34 C37 36 37 36 37 36 Z M37 36 C37.33 36.99 37.66 37.98 38 39 C38 38.01 38 37.02 38 36 C37.67 36 37.34 36 37 36 Z " fill="#053F33" transform="translate(23,65)"/>
</svg>
