<?xml version="1.0" encoding="UTF-8"?>
<svg version="1.1" xmlns="http://www.w3.org/2000/svg" width="214" height="195">
<path d="M0 0 C7.26 0 14.52 0 22 0 C22.42230347 16.89213894 22.42230347 16.89213894 19 24 C18.443125 25.670625 18.443125 25.670625 17.875 27.375 C17 30 17 30 16 32 C15.34 32 14.68 32 14 32 C14 32.99 14 33.98 14 35 C3.87907481 46.67581593 -11.27427396 51.52399297 -26 54 C-28.17173519 59.86368501 -29.53770024 65.51359244 -30.375 71.71484375 C-31 74 -31 74 -34 76 C-34.99 75.67 -35.98 75.34 -37 75 C-37.99 75.66 -38.98 76.32 -40 77 C-42.08691406 77.25396729 -42.08691406 77.25396729 -44.515625 77.25878906 C-45.42666992 77.26509338 -46.33771484 77.27139771 -47.27636719 77.27789307 C-48.25766602 77.2738446 -49.23896484 77.26979614 -50.25 77.265625 C-51.7644873 77.26849518 -51.7644873 77.26849518 -53.30957031 77.27142334 C-55.44466399 77.27278459 -57.57976596 77.26909237 -59.71484375 77.26074219 C-62.98716788 77.25004196 -66.25894299 77.26063967 -69.53125 77.2734375 C-71.60416788 77.27211589 -73.67708542 77.26955348 -75.75 77.265625 C-76.73129883 77.26967346 -77.71259766 77.27372192 -78.72363281 77.27789307 C-79.63467773 77.27158875 -80.54572266 77.26528442 -81.484375 77.25878906 C-82.28584961 77.25719788 -83.08732422 77.25560669 -83.91308594 77.25396729 C-86.51296508 76.93757465 -88.14065404 75.85934596 -90 74 C-90.11378363 72.54312129 -90.15953831 71.08083981 -90.17700195 69.61962891 C-90.18983719 68.68841217 -90.20267242 67.75719543 -90.21589661 66.79776001 C-90.22697701 65.27751724 -90.22697701 65.27751724 -90.23828125 63.7265625 C-90.246353 62.69187836 -90.25442474 61.65719421 -90.26274109 60.59115601 C-90.27659957 58.39705084 -90.28731379 56.20292395 -90.29516602 54.00878906 C-90.31239206 50.64607109 -90.35626453 47.28433252 -90.40039062 43.921875 C-90.41051574 41.79427809 -90.41903241 39.6666728 -90.42578125 37.5390625 C-90.44328934 36.52961578 -90.46079742 35.52016907 -90.47883606 34.48013306 C-90.47591049 33.542612 -90.47298492 32.60509094 -90.4699707 31.63916016 C-90.47583694 30.81388824 -90.48170319 29.98861633 -90.48774719 29.13833618 C-90 27 -90 27 -88.26568604 25.23431396 C-85.69985855 23.83648715 -84.18426243 23.62030348 -81.27905273 23.61181641 C-80.34806259 23.60235992 -79.41707245 23.59290344 -78.45787048 23.5831604 C-77.45985916 23.58923309 -76.46184784 23.59530579 -75.43359375 23.6015625 C-73.8879348 23.59725723 -73.8879348 23.59725723 -72.31105042 23.59286499 C-70.13485158 23.59082512 -67.95863438 23.59634955 -65.7824707 23.60888672 C-62.44636201 23.62495731 -59.11146189 23.60902647 -55.77539062 23.58984375 C-53.66145565 23.59182587 -51.54752144 23.59566891 -49.43359375 23.6015625 C-47.93354042 23.59245346 -47.93354042 23.59245346 -46.40318298 23.5831604 C-45.01142601 23.59734512 -45.01142601 23.59734512 -43.59155273 23.61181641 C-42.36721779 23.61539658 -42.36721779 23.61539658 -41.1181488 23.61904907 C-38.49705031 24.09045594 -37.62146221 24.92765086 -36 27 C-35.41796875 28.9375 -35.41796875 28.9375 -35.1875 31 C-35.09855469 31.680625 -35.00960937 32.36125 -34.91796875 33.0625 C-35 35 -35 35 -37 38 C-38.65 37.67 -40.3 37.34 -42 37 C-42 35.02 -42 33.04 -42 31 C-55.53 31 -69.06 31 -83 31 C-83 43.87 -83 56.74 -83 70 C-69.8 69.67 -56.6 69.34 -43 69 C-47.62 68.01 -52.24 67.02 -57 66 C-64.01965996 62.92889877 -68.95206829 58.13035152 -71.8125 51 C-72.99831896 47.36490022 -73.77467126 43.83058866 -74 40 C-73.34 39.01 -72.68 38.02 -72 37 C-65.19772143 35.80413628 -56.87103428 36.8129355 -50.8359375 40.22265625 C-42.88990968 45.80273197 -38.8804125 52.49092215 -37 62 C-36.95591144 63.66608342 -36.94368579 65.33428499 -37 67 C-35.25322589 65.25322589 -35.5648096 62.85925337 -35.29492188 60.50976562 C-31.87950106 31.44476071 -31.87950106 31.44476071 -26 21 C-25.58234375 20.20078125 -25.1646875 19.4015625 -24.734375 18.578125 C-20.59320818 11.48578182 -14.10414232 5.77247593 -6.2890625 3.05859375 C-3.8125 2.5 -3.8125 2.5 0 2 C0 1.34 0 0.68 0 0 Z " fill="#AAC352" transform="translate(171,0)"/>
<path d="M0 0 C0.97110718 -0.00945648 1.94221436 -0.01891296 2.94274902 -0.02865601 C4.51312927 -0.01954697 4.51312927 -0.01954697 6.11523438 -0.01025391 C7.72960388 -0.01455917 7.72960388 -0.01455917 9.37658691 -0.01895142 C11.65291876 -0.02099365 13.92926809 -0.0154527 16.20556641 -0.00292969 C19.69538511 0.01312105 23.18404557 -0.00277368 26.67382812 -0.02197266 C28.88346611 -0.01999025 31.09310336 -0.01614664 33.30273438 -0.01025391 C34.34965454 -0.0163266 35.39657471 -0.02239929 36.47521973 -0.02865601 C37.93188049 -0.01447128 37.93188049 -0.01447128 39.41796875 0 C40.70012268 0.00358017 40.70012268 0.00358017 42.00817871 0.00723267 C44.20898438 0.38818359 44.20898438 0.38818359 45.98217773 1.61300659 C47.57888745 3.92342966 47.60133529 5.38002077 47.62890625 8.17919922 C47.64481812 9.1503064 47.66072998 10.12141357 47.67712402 11.12194824 C47.67732544 12.16886841 47.67752686 13.21578857 47.67773438 14.29443359 C47.6853479 15.37067993 47.69296143 16.44692627 47.70080566 17.55578613 C47.71161495 19.83208901 47.71445643 22.10844152 47.70996094 24.38476562 C47.70898804 27.875023 47.75061455 31.36308724 47.79492188 34.85302734 C47.80012817 37.06265816 47.80281708 39.27229664 47.80273438 41.48193359 C47.81912964 42.52885376 47.8355249 43.57577393 47.85241699 44.65441895 C47.78452409 51.73967471 47.78452409 51.73967471 45.29296875 54.54711914 C40.90954943 55.74256559 36.79737634 55.79672475 32.27148438 55.75146484 C30.83494507 55.7522126 30.83494507 55.7522126 29.36938477 55.75297546 C27.34877442 55.75063965 25.3281609 55.74094026 23.30761719 55.72436523 C20.2197866 55.70076615 17.13281981 55.70380911 14.04492188 55.71044922 C12.07877091 55.70487221 10.11262357 55.69776219 8.14648438 55.68896484 C6.76505249 55.69033195 6.76505249 55.69033195 5.35571289 55.69172668 C-2.90818236 55.60059777 -2.90818236 55.60059777 -6.79101562 53.38818359 C-8.481277 50.00766085 -8.03546522 46.16558218 -8.10742188 42.44287109 C-8.12820297 41.55785919 -8.14898407 40.67284729 -8.1703949 39.76101685 C-8.23588161 36.92848618 -8.29477125 34.09586134 -8.35351562 31.26318359 C-8.39670168 29.34520503 -8.440316 27.42723605 -8.484375 25.50927734 C-8.5915621 20.80234308 -8.69283202 16.09531392 -8.79101562 11.38818359 C-9.04786133 12.06510254 -9.30470703 12.74202148 -9.56933594 13.43945312 C-9.91577148 14.3326123 -10.26220703 15.22577148 -10.61914062 16.14599609 C-10.95848633 17.02916504 -11.29783203 17.91233398 -11.64746094 18.82226562 C-14.78071029 25.85267782 -19.73399835 29.66658197 -26.79101562 32.38818359 C-30.93088579 33.79152941 -34.41720525 34.65326301 -38.79101562 34.38818359 C-38.96049141 35.80451695 -39.1264707 37.22126892 -39.29101562 38.63818359 C-39.38382813 39.42708984 -39.47664063 40.21599609 -39.57226562 41.02880859 C-39.85256182 43.65708756 -39.85256182 43.65708756 -39.79101562 47.38818359 C-33.52101562 47.71818359 -27.25101563 48.04818359 -20.79101562 48.38818359 C-20.87004857 43.21243558 -20.87004857 43.21243558 -20.97119141 38.03710938 C-20.9857878 36.1532331 -20.89045045 34.26949048 -20.79101562 32.38818359 C-20.13101563 31.72818359 -19.47101563 31.06818359 -18.79101562 30.38818359 C-16.16601562 30.76318359 -16.16601562 30.76318359 -13.79101562 31.38818359 C-13.67496884 34.82540019 -13.60382054 38.26211445 -13.54101562 41.70068359 C-13.5075 42.67714844 -13.47398438 43.65361328 -13.43945312 44.65966797 C-13.42011719 46.06635742 -13.42011719 46.06635742 -13.40039062 47.50146484 C-13.36896973 48.7975769 -13.36896973 48.7975769 -13.33691406 50.11987305 C-13.79101562 52.38818359 -13.79101562 52.38818359 -15.5368042 54.00569153 C-18.06614227 55.55691683 -19.37677284 55.76736632 -22.3125 55.77636719 C-23.20022095 55.78582367 -24.08794189 55.79528015 -25.00256348 55.80502319 C-25.95369019 55.7989505 -26.90481689 55.79287781 -27.88476562 55.78662109 C-28.86844116 55.78949127 -29.8521167 55.79236145 -30.86560059 55.7953186 C-32.94344662 55.79735829 -35.02131189 55.7918351 -37.09912109 55.77929688 C-40.27940816 55.76324219 -43.45842433 55.77914912 -46.63867188 55.79833984 C-48.65820593 55.7963574 -50.67773919 55.79251369 -52.69726562 55.78662109 C-54.12395569 55.79573013 -54.12395569 55.79573013 -55.57946777 55.80502319 C-56.46718872 55.79556671 -57.35490967 55.78611023 -58.26953125 55.77636719 C-59.04800415 55.77398041 -59.82647705 55.77159363 -60.62854004 55.76913452 C-63.40880669 55.27935088 -64.78724626 54.36093737 -66.79101562 52.38818359 C-67.04101562 48.70068359 -67.04101562 48.70068359 -66.79101562 45.38818359 C-65.30601563 44.89318359 -65.30601563 44.89318359 -63.79101562 44.38818359 C-62.80101563 45.04818359 -61.81101562 45.70818359 -60.79101562 46.38818359 C-60.79101562 46.71818359 -60.79101562 47.04818359 -60.79101562 47.38818359 C-55.84101562 47.38818359 -50.89101563 47.38818359 -45.79101562 47.38818359 C-46.78101563 44.41818359 -47.77101562 41.44818359 -48.79101562 38.38818359 C-50.31726562 38.47068359 -51.84351563 38.55318359 -53.41601562 38.63818359 C-63.21059026 38.6255291 -73.49717476 36.17315184 -80.79101562 29.38818359 C-81.45898438 27.23193359 -81.45898438 27.23193359 -81.79101562 25.38818359 C-82.45101562 25.38818359 -83.11101562 25.38818359 -83.79101562 25.38818359 C-87.86969368 18.08450428 -89.12864536 11.82892685 -88.79101562 3.38818359 C-86.37434312 0.97151109 -79.55539601 2.07632028 -76.15307617 2.07348633 C-66.54614112 2.22592009 -60.6173532 4.91577393 -53.58007812 11.46240234 C-49.14340942 16.23811778 -46.73800013 21.20519227 -44.79101562 27.38818359 C-44.571875 26.54255859 -44.35273437 25.69693359 -44.12695312 24.82568359 C-41.71330623 16.19149959 -39.15949008 8.81271576 -31.22851562 3.95068359 C-25.86450788 1.51249826 -21.34955596 1.27081406 -15.47851562 1.32568359 C-14.22425781 1.33470703 -12.97 1.34373047 -11.67773438 1.35302734 C-10.72511719 1.36462891 -9.7725 1.37623047 -8.79101562 1.38818359 C-8.29601562 2.37818359 -8.29601562 2.37818359 -7.79101562 3.38818359 C-7.39483032 2.90118988 -6.99864502 2.41419617 -6.5904541 1.91244507 C-4.26490169 -0.05747499 -3.02053539 0.00843427 0 0 Z M-0.79101562 7.38818359 C-0.79101562 20.91818359 -0.79101562 34.44818359 -0.79101562 48.38818359 C12.73898438 48.38818359 26.26898438 48.38818359 40.20898438 48.38818359 C40.20898438 34.85818359 40.20898438 21.32818359 40.20898438 7.38818359 C26.67898437 7.38818359 13.14898437 7.38818359 -0.79101562 7.38818359 Z " fill="#AAC352" transform="translate(88.791015625,82.61181640625)"/>
<path d="M0 0 C0.74887412 10.94188291 -1.77605242 18.63785084 -8.4375 27.30859375 C-15.72446485 35.1967332 -27.67885314 37.53085696 -38 38 C-38.99 41.96 -39.98 45.92 -41 50 C-35.06 49.67 -29.12 49.34 -23 49 C-23 45.7 -23 42.4 -23 39 C-21.35 38.34 -19.7 37.68 -18 37 C-16 39 -16 39 -15.734375 42.15234375 C-15.73953125 43.40144531 -15.7446875 44.65054688 -15.75 45.9375 C-15.74226563 47.80728516 -15.74226563 47.80728516 -15.734375 49.71484375 C-16 53 -16 53 -18 56 C-20.20117188 56.38095093 -20.20117188 56.38095093 -22.96875 56.38818359 C-24.00322266 56.39764008 -25.03769531 56.40709656 -26.10351562 56.4168396 C-27.78477539 56.40773056 -27.78477539 56.40773056 -29.5 56.3984375 C-31.21993164 56.40274277 -31.21993164 56.40274277 -32.97460938 56.40713501 C-35.40234876 56.40917933 -37.83010449 56.40362393 -40.2578125 56.39111328 C-43.98474784 56.37506567 -47.71059859 56.39095049 -51.4375 56.41015625 C-53.79166907 56.40817388 -56.14583747 56.40433035 -58.5 56.3984375 C-59.62083984 56.40451019 -60.74167969 56.41058289 -61.89648438 56.4168396 C-63.44819336 56.40265488 -63.44819336 56.40265488 -65.03125 56.38818359 C-66.40120117 56.38460342 -66.40120117 56.38460342 -67.79882812 56.38095093 C-68.52521484 56.25523712 -69.25160156 56.12952332 -70 56 C-72.11082348 52.83376478 -72.24932538 52.08469153 -72.24291992 48.46850586 C-72.24599655 47.55423325 -72.24907318 46.63996063 -72.25224304 45.69798279 C-72.24505753 44.71354691 -72.23787201 43.72911102 -72.23046875 42.71484375 C-72.23001053 41.70281387 -72.22955231 40.690784 -72.2290802 39.64808655 C-72.2260589 37.50878731 -72.21817624 35.36949025 -72.20581055 33.23022461 C-72.18755296 29.94702404 -72.18530088 26.66410541 -72.18554688 23.38085938 C-72.1806317 21.30468505 -72.17480339 19.22851264 -72.16796875 17.15234375 C-72.16685593 16.16588364 -72.1657431 15.17942352 -72.16459656 14.16307068 C-72.15821671 13.25195023 -72.15183685 12.34082977 -72.14526367 11.40209961 C-72.14145187 10.59840439 -72.13764008 9.79470917 -72.13371277 8.96665955 C-72 7 -72 7 -71 5 C-66.56343695 1.89648876 -62.1588097 3.35533805 -57.13671875 4.23828125 C-51.02532056 5.72236923 -47.50668912 8.92134679 -44 14 C-42.95548562 15.97711651 -41.94301862 17.97250996 -41 20 C-40.505 18.845 -40.01 17.69 -39.5 16.5 C-35.97987324 9.50932574 -30.31421583 3.87674753 -23.13671875 0.67578125 C-16.00090078 -1.58106794 -7.19373955 -1.96192897 0 0 Z M-65 22 C-65 31.24 -65 40.48 -65 50 C-58.73 50 -52.46 50 -46 50 C-45.67 47.03 -45.34 44.06 -45 41 C-44.6596875 39.63875 -44.6596875 39.63875 -44.3125 38.25 C-43.88678518 35.18485327 -44.50551268 33.70026686 -46 31 C-48.60399021 29.70718234 -48.60399021 29.70718234 -51.6875 29 C-57.53781056 27.4537934 -59.56577062 25.88159241 -65 22 Z " fill="#AAC352" transform="translate(214,139)"/>
<path d="M0 0 C0.97103165 -0.00945648 1.94206329 -0.01891296 2.94252014 -0.02865601 C3.98427902 -0.02258331 5.0260379 -0.01651062 6.09936523 -0.01025391 C7.17419662 -0.01312408 8.24902802 -0.01599426 9.35643005 -0.01895142 C11.62678556 -0.02099161 13.89715865 -0.01546491 16.16748047 -0.00292969 C19.6484287 0.0131396 23.12821852 -0.00278866 26.60913086 -0.02197266 C28.81421155 -0.01999053 31.01929153 -0.01614748 33.22436523 -0.01025391 C34.26814835 -0.0163266 35.31193146 -0.02239929 36.38734436 -0.02865601 C37.35522385 -0.01919952 38.32310333 -0.00974304 39.3203125 0 C40.17206558 0.00238678 41.02381866 0.00477356 41.90138245 0.00723267 C44.09545898 0.38818359 44.09545898 0.38818359 45.86964417 1.6187439 C47.45551706 3.90792038 47.47573006 5.3126117 47.48364258 8.08740234 C47.49309906 9.03848877 47.50255554 9.9895752 47.51229858 10.96948242 C47.50622589 11.99452881 47.5001532 13.0195752 47.49389648 14.07568359 C47.49676666 15.12973389 47.49963684 16.18378418 47.50259399 17.26977539 C47.50463612 19.4990289 47.49909597 21.72830027 47.48657227 23.95751953 C47.47052129 27.37491828 47.48641657 30.79113425 47.50561523 34.20849609 C47.50363283 36.37256121 47.49978921 38.53662559 47.49389648 40.70068359 C47.50300552 42.23825317 47.50300552 42.23825317 47.51229858 43.80688477 C47.5028421 44.75797119 47.49338562 45.70905762 47.48364258 46.68896484 C47.4812558 47.52596924 47.47886902 48.36297363 47.47640991 49.2253418 C47.00821235 51.88352475 46.18357224 52.73307527 44.09545898 54.38818359 C41.76026103 55.55578257 40.32807203 55.53908793 37.72509766 55.58105469 C36.36810005 55.60514908 36.36810005 55.60514908 34.98368835 55.62973022 C30.84443898 55.6741722 26.70535011 55.71524463 22.56591797 55.73828125 C20.38254133 55.75484289 18.19921895 55.78213548 16.01611328 55.8203125 C12.86909848 55.87506803 9.72335468 55.89695349 6.57592773 55.91162109 C5.60181442 55.93429047 4.62770111 55.95695984 3.62406921 55.98031616 C-0.71523107 55.96678715 -3.24397414 55.78384048 -7.02026367 53.52197266 C-9.77328007 48.94336181 -9.60358248 44.97624462 -9.53344727 39.72412109 C-9.53585922 38.69509674 -9.53827118 37.66607239 -9.54075623 36.60586548 C-9.53977851 34.4356093 -9.52640312 32.26532795 -9.50146484 30.09521484 C-9.46708597 26.76753492 -9.48082815 23.44250012 -9.50024414 20.11474609 C-9.49334771 18.00535976 -9.48367717 15.89598029 -9.47094727 13.78662109 C-9.47590714 12.7897226 -9.480867 11.7928241 -9.48597717 10.76571655 C-9.47014084 9.84110626 -9.4543045 8.91649597 -9.43798828 7.96386719 C-9.4317897 7.1506601 -9.42559113 6.337453 -9.41920471 5.49960327 C-8.90454102 3.38818359 -8.90454102 3.38818359 -7.17773438 1.62646484 C-4.55638394 0.19853128 -2.97126668 0.0083183 0 0 Z M-1.90454102 7.38818359 C-1.92516602 13.96755859 -1.94579102 20.54693359 -1.96704102 27.32568359 C-1.97614502 29.40486084 -1.98524902 31.48403809 -1.99462891 33.6262207 C-1.99754803 35.26432226 -2.0000966 36.90242453 -2.00219727 38.54052734 C-2.00731323 39.39908325 -2.0124292 40.25763916 -2.0177002 41.14221191 C-2.01801011 43.22454411 -1.96696277 45.30678719 -1.90454102 47.38818359 C-0.67220517 48.84938629 -0.67220517 48.84938629 3.06445312 48.50170898 C4.83651505 48.5015498 6.60858158 48.49585144 8.38061523 48.48583984 C9.31143417 48.4844249 10.24225311 48.48300995 11.20127869 48.48155212 C14.1868709 48.47593531 17.17238928 48.46337999 20.15795898 48.45068359 C22.17683811 48.44567076 24.19571841 48.44110748 26.21459961 48.43701172 C31.17493769 48.42680946 36.13511528 48.40723741 41.09545898 48.38818359 C40.76545898 34.85818359 40.43545898 21.32818359 40.09545898 7.38818359 C26.23545898 7.38818359 12.37545898 7.38818359 -1.90454102 7.38818359 Z " fill="#AAC352" transform="translate(150.904541015625,82.61181640625)"/>
<path d="M0 0 C0.93106567 -0.00945648 1.86213135 -0.01891296 2.82141113 -0.02865601 C4.32617004 -0.01954697 4.32617004 -0.01954697 5.86132812 -0.01025391 C7.4091095 -0.01455917 7.4091095 -0.01455917 8.98815918 -0.01895142 C11.17033436 -0.02099342 13.35252778 -0.01545411 15.53466797 -0.00292969 C18.87964713 0.01312154 22.22341791 -0.00277432 25.56835938 -0.02197266 C27.68685163 -0.01999025 29.80534314 -0.01614663 31.92382812 -0.01025391 C32.92700073 -0.0163266 33.93017334 -0.02239929 34.96374512 -0.02865601 C36.36034363 -0.01447128 36.36034363 -0.01447128 37.78515625 0 C38.60439575 0.00238678 39.42363525 0.00477356 40.2677002 0.00723267 C42.95799896 0.48955299 43.82977814 1.15869285 45.39257812 3.38818359 C45.77352905 5.51306152 45.77352905 5.51306152 45.78076172 7.99560547 C45.7902182 8.92667114 45.79967468 9.85773682 45.80941772 10.8170166 C45.80334503 11.82018921 45.79727234 12.82336182 45.79101562 13.85693359 C45.7938858 14.88878784 45.79675598 15.92064209 45.79971313 16.98376465 C45.80175513 19.16593982 45.79621583 21.34813325 45.78369141 23.53027344 C45.76764018 26.8752526 45.78353604 30.21902338 45.80273438 33.56396484 C45.80075197 35.6824571 45.79690835 37.8009486 45.79101562 39.91943359 C45.80012466 41.4241925 45.80012466 41.4241925 45.80941772 42.95935059 C45.79996124 43.89041626 45.79050476 44.82148193 45.78076172 45.78076172 C45.77837494 46.60000122 45.77598816 47.41924072 45.77352905 48.26330566 C45.29064433 50.95675256 44.62885997 51.82783411 42.39257812 53.38818359 C40.2230072 53.7624054 40.2230072 53.7624054 37.67749023 53.76049805 C36.24601906 53.76984123 36.24601906 53.76984123 34.78562927 53.77937317 C33.75744583 53.77016342 32.72926239 53.76095367 31.66992188 53.75146484 C30.61349991 53.75196335 29.55707794 53.75246185 28.46864319 53.75297546 C26.23517984 53.75063443 24.00171388 53.74090421 21.76831055 53.72436523 C18.34009351 53.70075258 14.91265277 53.7038067 11.484375 53.71044922 C9.31705263 53.70487332 7.14973355 53.697764 4.98242188 53.68896484 C3.9522142 53.68987625 2.92200653 53.69078766 1.86058044 53.69172668 C0.43383751 53.67742867 0.43383751 53.67742867 -1.02172852 53.6628418 C-2.28056602 53.65593071 -2.28056602 53.65593071 -3.56483459 53.64888 C-5.60742188 53.38818359 -5.60742188 53.38818359 -7.60742188 51.38818359 C-7.86811829 49.34559631 -7.86811829 49.34559631 -7.88208008 46.80249023 C-7.89161209 45.85132828 -7.9011441 44.90016632 -7.91096497 43.92018127 C-7.91005356 42.8899736 -7.90914215 41.85976593 -7.90820312 40.79833984 C-7.91248825 39.7428746 -7.91677338 38.68740936 -7.92118835 37.59996033 C-7.92693893 35.36474323 -7.92742659 33.12950741 -7.9230957 30.89428711 C-7.91993793 27.46810054 -7.94337893 24.04277879 -7.96875 20.61669922 C-7.97102307 18.44808052 -7.97172645 16.27945949 -7.97070312 14.11083984 C-7.97991287 13.0826564 -7.98912262 12.05447296 -7.99861145 10.99513245 C-7.99238266 10.04081833 -7.98615387 9.08650421 -7.97973633 8.10327148 C-7.98068047 6.84324059 -7.98068047 6.84324059 -7.98164368 5.55775452 C-7.60742188 3.38818359 -7.60742188 3.38818359 -6.37211609 1.61775208 C-4.1086548 0.0406626 -2.74801296 0.00800609 0 0 Z M-0.60742188 7.38818359 C-0.93742187 20.25818359 -1.26742188 33.12818359 -1.60742188 46.38818359 C11.59257813 46.38818359 24.79257813 46.38818359 38.39257812 46.38818359 C38.39257812 33.51818359 38.39257812 20.64818359 38.39257812 7.38818359 C25.52257812 7.38818359 12.65257812 7.38818359 -0.60742188 7.38818359 Z " fill="#AAC352" transform="translate(29.607421875,23.61181640625)"/>
<path d="M0 0 C1.33180801 -0.00956978 1.33180801 -0.00956978 2.69052124 -0.01933289 C3.65197052 -0.02044571 4.6134198 -0.02155853 5.60400391 -0.02270508 C7.08376205 -0.02769768 7.08376205 -0.02769768 8.59341431 -0.03279114 C10.68320244 -0.03786018 12.77299869 -0.04019947 14.86279297 -0.04003906 C18.06052002 -0.04222264 21.25790057 -0.06037065 24.45556641 -0.0793457 C26.48421106 -0.08228019 28.51285735 -0.08426462 30.54150391 -0.08520508 C31.49890472 -0.09239059 32.45630554 -0.09957611 33.44271851 -0.10697937 C34.783983 -0.10236443 34.783983 -0.10236443 36.15234375 -0.09765625 C36.93684906 -0.09908127 37.72135437 -0.10050629 38.52963257 -0.10197449 C41.00307114 0.17906733 42.59981664 0.83081013 44.70556641 2.14526367 C45.89402702 4.52218491 45.84473241 6.00255289 45.86669922 8.6550293 C45.87630676 9.58939819 45.88591431 10.52376709 45.89581299 11.4864502 C45.90006287 12.49792114 45.90431274 13.50939209 45.90869141 14.55151367 C45.91439148 15.58715454 45.92009155 16.62279541 45.92596436 17.68981934 C45.93542011 19.88215104 45.94195062 22.07449699 45.94580078 24.2668457 C45.95552667 27.63151575 45.9865532 30.99558032 46.01806641 34.36010742 C46.0245942 36.48640586 46.02984555 38.61270869 46.03369141 40.73901367 C46.04603821 41.75048462 46.05838501 42.76195557 46.07110596 43.80407715 C46.06810486 44.73844604 46.06510376 45.67281494 46.06201172 46.63549805 C46.06748016 47.87221252 46.06748016 47.87221252 46.07305908 49.13391113 C45.9517865 49.79765747 45.83051392 50.46140381 45.70556641 51.14526367 C42.48882781 53.28975607 41.6196135 53.39995079 37.91455078 53.41992188 C36.45789001 53.43421989 36.45789001 53.43421989 34.97180176 53.44880676 C33.92488159 53.44789536 32.87796143 53.44698395 31.79931641 53.44604492 C30.72307007 53.45033005 29.64682373 53.45461517 28.53796387 53.45903015 C26.26164453 53.4647752 23.98530683 53.46527243 21.70898438 53.4609375 C18.21924679 53.45777607 14.73035547 53.48124039 11.24072266 53.5065918 C9.03108831 53.50886455 6.82145168 53.5095684 4.61181641 53.50854492 C3.56489624 53.51775467 2.51797607 53.52696442 1.43933105 53.53645325 C0.46822388 53.53022446 -0.5028833 53.52399567 -1.50341797 53.51757812 C-2.35818726 53.51820755 -3.21295654 53.51883698 -4.09362793 53.51948547 C-6.29443359 53.14526367 -6.29443359 53.14526367 -8.0696106 51.90422058 C-9.62728532 49.66725841 -9.67453247 48.34446593 -9.68261719 45.62963867 C-9.69207367 44.71859375 -9.70153015 43.80754883 -9.71127319 42.86889648 C-9.7052005 41.88759766 -9.69912781 40.90629883 -9.69287109 39.89526367 C-9.69574127 38.88560547 -9.69861145 37.87594727 -9.7015686 36.83569336 C-9.70361048 34.70059651 -9.69807205 32.56548101 -9.68554688 30.43041992 C-9.66949538 27.15785996 -9.68539184 23.88653511 -9.70458984 20.61401367 C-9.70260743 18.54109427 -9.69876381 16.46817564 -9.69287109 14.39526367 C-9.69894379 13.41396484 -9.70501648 12.43266602 -9.71127319 11.42163086 C-9.70181671 10.51058594 -9.69236023 9.59954102 -9.68261719 8.66088867 C-9.68023041 7.85941406 -9.67784363 7.05793945 -9.67538452 6.23217773 C-9.20045497 3.63043274 -8.33361983 2.77620835 -6.29443359 1.14526367 C-3.96563642 -0.01913492 -2.5935105 0.0126271 0 0 Z M-2.29443359 7.14526367 C-2.29443359 20.34526367 -2.29443359 33.54526367 -2.29443359 47.14526367 C11.23556641 47.14526367 24.76556641 47.14526367 38.70556641 47.14526367 C38.70556641 33.94526367 38.70556641 20.74526367 38.70556641 7.14526367 C25.17556641 7.14526367 11.64556641 7.14526367 -2.29443359 7.14526367 Z " fill="#AAC352" transform="translate(90.29443359375,141.854736328125)"/>
<path d="M0 0 C1.36172585 -0.01418472 1.36172585 -0.01418472 2.7509613 -0.02865601 C3.72912308 -0.02258331 4.70728485 -0.01651062 5.71508789 -0.01025391 C7.22601768 -0.01455917 7.22601768 -0.01455917 8.76747131 -0.01895142 C10.89837201 -0.02099347 13.02929138 -0.0154538 15.16015625 -0.00292969 C18.42173245 0.01310488 21.68206625 -0.00276542 24.94360352 -0.02197266 C27.01326771 -0.01998992 29.08293113 -0.01614562 31.15258789 -0.01025391 C32.6167942 -0.01936295 32.6167942 -0.01936295 34.11058044 -0.02865601 C35.47703453 -0.01447128 35.47703453 -0.01447128 36.87109375 0 C38.06997475 0.00358017 38.06997475 0.00358017 39.29307556 0.00723267 C42.13501079 0.49774249 43.4810938 1.33495043 45.50024414 3.38818359 C45.99472046 5.55775452 45.99472046 5.55775452 45.98608398 8.10327148 C45.99223724 9.0575856 45.9983905 10.01189972 46.00473022 10.99513245 C45.99035919 12.02331589 45.97598816 13.05149933 45.96118164 14.11083984 C45.95980698 15.69547279 45.95980698 15.69547279 45.95840454 17.31211853 C45.95236109 19.54560844 45.93659294 21.77908997 45.91186523 24.01245117 C45.87535014 27.44073162 45.87084583 30.86793212 45.87133789 34.29638672 C45.86150747 36.46371381 45.8498508 38.63103356 45.83618164 40.79833984 C45.83395599 41.82854752 45.83173035 42.85875519 45.82943726 43.92018127 C45.81667755 44.87134323 45.80391785 45.82250519 45.79077148 46.80249023 C45.77933609 48.06132774 45.77933609 48.06132774 45.76766968 49.34559631 C45.50024414 51.38818359 45.50024414 51.38818359 43.50024414 53.38818359 C41.36154175 53.62869263 41.36154175 53.62869263 38.68334961 53.61523438 C37.68246307 53.61508331 36.68157654 53.61493225 35.65036011 53.61477661 C34.02531052 53.59929276 34.02531052 53.59929276 32.36743164 53.58349609 C31.26045929 53.5806662 30.15348694 53.5778363 29.01296997 53.57492065 C25.46695277 53.56369878 21.92118539 53.5385905 18.37524414 53.51318359 C15.9755082 53.50315639 13.57576831 53.49403009 11.17602539 53.48583984 C5.28401264 53.46375292 -0.60785377 53.43025566 -6.49975586 53.38818359 C-7.69745446 50.99278638 -7.63912765 49.47712232 -7.66088867 46.80249023 C-7.67049622 45.85132828 -7.68010376 44.90016632 -7.69000244 43.92018127 C-7.69425232 42.8899736 -7.6985022 41.85976593 -7.70288086 40.79833984 C-7.70858093 39.7428746 -7.71428101 38.68740936 -7.72015381 37.59996033 C-7.72961075 35.36474615 -7.73614054 33.12951798 -7.73999023 30.89428711 C-7.74970625 27.46817857 -7.78072779 24.04266713 -7.81225586 20.61669922 C-7.81878467 18.448083 -7.82403562 16.27946248 -7.82788086 14.11083984 C-7.84022766 13.0826564 -7.85257446 12.05447296 -7.86529541 10.99513245 C-7.86229431 10.04081833 -7.85929321 9.08650421 -7.85620117 8.10327148 C-7.8598468 7.26325089 -7.86349243 6.42323029 -7.86724854 5.55775452 C-7.49975586 3.38818359 -7.49975586 3.38818359 -6.25871277 1.61775208 C-4.02559015 0.05672623 -2.71325096 0.00811054 0 0 Z M-1.49975586 7.38818359 C-1.49975586 20.58818359 -1.49975586 33.78818359 -1.49975586 47.38818359 C11.70024414 47.38818359 24.90024414 47.38818359 38.50024414 47.38818359 C38.50024414 34.18818359 38.50024414 20.98818359 38.50024414 7.38818359 C25.30024414 7.38818359 12.10024414 7.38818359 -1.49975586 7.38818359 Z " fill="#AAC352" transform="translate(29.499755859375,141.61181640625)"/>
<path d="M0 0 C1.18655283 2.37310566 1.13912339 3.84599721 1.16113281 6.49389648 C1.17074036 7.42503769 1.1803479 8.35617889 1.19024658 9.3155365 C1.19449646 10.32387039 1.19874634 11.33220428 1.203125 12.37109375 C1.20882507 13.40436295 1.21452515 14.43763214 1.22039795 15.50221252 C1.22985453 17.69034804 1.23638454 19.87849783 1.24023438 22.06665039 C1.24995027 25.42033587 1.28097203 28.77341131 1.3125 32.12695312 C1.31902884 34.24999635 1.32427978 36.37304397 1.328125 38.49609375 C1.3404718 39.50240341 1.3528186 40.50871307 1.36553955 41.54551697 C1.36253845 42.47981033 1.35953735 43.4141037 1.35644531 44.37670898 C1.36191376 45.61009254 1.36191376 45.61009254 1.36749268 46.86839294 C1 49 1 49 -0.22184753 50.76568604 C-2.54559267 52.37872605 -3.98847489 52.37438254 -6.80688477 52.37231445 C-8.26838707 52.38165764 -8.26838707 52.38165764 -9.75941467 52.39118958 C-10.80947189 52.38197983 -11.85952911 52.37277008 -12.94140625 52.36328125 C-14.02002426 52.36377975 -15.09864227 52.36427826 -16.20994568 52.36479187 C-18.49048708 52.3624507 -20.77103103 52.35271968 -23.05151367 52.33618164 C-26.55215416 52.31256978 -30.05203441 52.31562293 -33.55273438 52.32226562 C-35.76562956 52.31668972 -37.97852153 52.30958039 -40.19140625 52.30078125 C-41.2434877 52.30169266 -42.29556915 52.30260406 -43.37953186 52.30354309 C-44.35071457 52.29401108 -45.32189728 52.28447906 -46.32250977 52.2746582 C-47.17949966 52.27005081 -48.03648956 52.26544342 -48.91944885 52.26069641 C-51 52 -51 52 -53 50 C-53.125 47.375 -53.125 47.375 -53 45 C-48.12281766 43.72903003 -43.32446392 43.87331641 -38.32421875 43.90234375 C-37.09330505 43.90385437 -37.09330505 43.90385437 -35.83752441 43.90539551 C-32.78750195 43.91060681 -29.7374995 43.92456803 -26.6875 43.9375 C-19.860625 43.958125 -13.03375 43.97875 -6 44 C-6 29.48 -6 14.96 -6 0 C-3 -1 -3 -1 0 0 Z " fill="#AAC352" transform="translate(197,25)"/>
</svg>
