<?xml version="1.0" encoding="UTF-8"?>
<svg version="1.1" xmlns="http://www.w3.org/2000/svg" width="199" height="198">
<path d="M0 0 C0.69451767 -0.0065712 1.38903534 -0.0131424 2.104599 -0.01991272 C4.40721745 -0.03965262 6.70977066 -0.05131001 9.01245117 -0.0612793 C9.79872076 -0.06535482 10.58499035 -0.06943035 11.39508629 -0.07362938 C15.55700799 -0.09449346 19.71889668 -0.10879347 23.88085938 -0.11816406 C28.17846811 -0.12922703 32.47555885 -0.16362416 36.7729845 -0.20333576 C40.07843484 -0.22948956 43.38376155 -0.23785479 46.68930626 -0.24144554 C48.27333765 -0.24631504 49.85736339 -0.25793948 51.44129372 -0.27648354 C53.66049778 -0.30084924 55.8783592 -0.29991548 58.09765625 -0.29296875 C59.99056145 -0.30176811 59.99056145 -0.30176811 61.92170715 -0.31074524 C66.8978766 0.42004584 69.21883808 2.81364097 72.16479492 6.7355957 C72.76807617 7.68563477 73.37135742 8.63567383 73.99291992 9.61450195 C74.66838867 10.65993164 75.34385742 11.70536133 76.03979492 12.7824707 C76.57056641 13.60690674 76.57056641 13.60690674 77.11206055 14.44799805 C79.09632639 17.48180001 81.17131302 20.45246075 83.24291992 23.42700195 C83.83991699 24.28636353 83.83991699 24.28636353 84.44897461 25.16308594 C85.37931623 26.50173503 86.31096569 27.83947505 87.24291992 29.17700195 C91.96592277 23.51886821 96.01973305 17.36848879 100.19799805 11.3059082 C100.80192383 10.43579102 101.40584961 9.56567383 102.02807617 8.66918945 C102.57343018 7.87883301 103.11878418 7.08847656 103.68066406 6.27416992 C105.63046954 3.65675641 107.30876404 1.64407989 110.24291992 0.17700195 C112.4932354 0.06436531 114.74693616 0.01760917 117 0 C117.69451767 -0.0065712 118.38903534 -0.0131424 119.104599 -0.01991272 C121.40721745 -0.03965262 123.70977066 -0.05131001 126.01245117 -0.0612793 C126.79872076 -0.06535482 127.58499035 -0.06943035 128.39508629 -0.07362938 C132.55700799 -0.09449346 136.71889668 -0.10879347 140.88085938 -0.11816406 C145.17846811 -0.12922703 149.47555885 -0.16362416 153.7729845 -0.20333576 C157.07843484 -0.22948956 160.38376155 -0.23785479 163.68930626 -0.24144554 C165.27333765 -0.24631504 166.85736339 -0.25793948 168.44129372 -0.27648354 C170.66049778 -0.30084924 172.8783592 -0.29991548 175.09765625 -0.29296875 C176.99056145 -0.30176811 176.99056145 -0.30176811 178.92170715 -0.31074524 C182.84365402 0.26522466 184.5078205 1.34907331 187.24291992 4.17700195 C187.82826636 7.59452462 187.6773559 9.39852506 185.98510742 12.4309082 C185.36893555 13.19274414 184.75276367 13.95458008 184.11791992 14.73950195 C179.73388558 20.41899869 175.75844717 26.31505406 171.80541992 32.30200195 C170.5783566 34.1593024 169.35054602 36.01610948 168.12182617 37.87231445 C167.32627319 39.07911865 167.32627319 39.07911865 166.51464844 40.31030273 C165.24291992 42.17700195 165.24291992 42.17700195 164.24291992 43.17700195 C164.12953153 45.28273682 164.08605417 47.39225734 164.06933594 49.50097656 C164.05930542 50.49124092 164.05930542 50.49124092 164.04907227 51.50151062 C164.03499288 52.93929616 164.02310809 54.37710443 164.01312447 55.81492424 C163.99676265 58.08817161 163.97352767 60.36125032 163.94822693 62.63441467 C163.87731421 69.09896494 163.81727387 75.56358417 163.76611328 82.02832031 C163.73437136 85.97826631 163.69310791 89.92801935 163.64591789 93.87780952 C163.62986811 95.38609925 163.61756035 96.89443347 163.6090107 98.40278435 C163.59689481 100.50993378 163.57276194 102.61662732 163.54589844 104.72363281 C163.53559097 105.92418808 163.52528351 107.12474335 163.5146637 108.36167908 C163.24291992 111.17700195 163.24291992 111.17700195 161.24291992 113.17700195 C158.70945072 113.43147755 158.70945072 113.43147755 155.44190979 113.43769836 C153.58896805 113.44832558 153.58896805 113.44832558 151.69859314 113.45916748 C150.32217371 113.45687345 148.94575462 113.45436372 147.56933594 113.45166016 C146.12564835 113.4560054 144.68196307 113.46118792 143.23828125 113.46714783 C139.3106117 113.48056958 135.38303818 113.48111297 131.45535016 113.47858453 C128.17986202 113.47751692 124.90439348 113.48239279 121.62890953 113.48718995 C113.90314491 113.4982962 106.1774289 113.49871632 98.45166016 113.49267578 C90.47409444 113.48663439 82.49670502 113.49894858 74.51916939 113.52024585 C67.67666451 113.53784319 60.83421583 113.54386616 53.99168915 113.54060811 C49.90200412 113.53879205 45.81244483 113.54146329 41.72278023 113.55532265 C37.87731634 113.56786607 34.03212788 113.56599026 30.1866684 113.55291176 C28.77371313 113.55053875 27.3607387 113.55330651 25.9478054 113.56153488 C24.02219989 113.5719419 22.09651643 113.56213291 20.1709137 113.55122375 C19.09224816 113.5513915 18.01358263 113.55155924 16.90223026 113.55173206 C14.24291992 113.17700195 14.24291992 113.17700195 12.38892937 111.8225174 C10.62135675 109.28452083 10.99046648 107.21488942 11.12792969 104.16210938 C11.17187866 102.91689011 11.21582764 101.67167084 11.2611084 100.38871765 C11.30465202 99.38728509 11.30465202 99.38728509 11.34907532 98.36562157 C11.49581834 94.77987628 11.56611574 91.19261473 11.63964844 87.60473633 C11.65534693 86.85330699 11.67104542 86.10187765 11.68721962 85.32767773 C12.62165666 48.69754371 12.62165666 48.69754371 -5.22192383 17.67700195 C-6.04297607 16.86231445 -6.86402832 16.04762695 -7.70996094 15.20825195 C-10.36118087 12.57758411 -11.67756986 10.94030005 -12.06958008 7.17700195 C-11.75708008 4.17700195 -11.75708008 4.17700195 -10.38208008 2.36450195 C-6.90381145 -0.17730974 -4.27494477 0.03341149 0 0 Z M6.24291992 13.17700195 C6.56837296 13.74534256 6.89382599 14.31368317 7.22914124 14.89924622 C9.27600802 18.51986662 11.17192522 21.99864883 12.71337891 25.87109375 C14.65611885 29.92949392 16.29158663 32.87524161 20.24291992 35.17700195 C29.32169095 37.40637241 39.05560175 36.38999996 48.30541992 35.98950195 C50.91400056 35.92425101 53.52273706 35.86494273 56.1315918 35.81176758 C62.50544821 35.66892556 68.873462 35.45182567 75.24291992 35.17700195 C74.60676758 34.17733398 74.60676758 34.17733398 73.95776367 33.1574707 C73.37124023 32.23579102 72.7847168 31.31411133 72.18041992 30.36450195 C71.53238907 29.37053909 70.88435822 28.37657623 70.21669006 27.35249329 C68.24291992 24.17700195 68.24291992 24.17700195 66.66648865 21.03507996 C63.77340217 15.36700745 63.77340217 15.36700745 58.509552 12.23672485 C55.12656594 11.90115818 51.92350018 11.93758695 48.52807617 12.1027832 C47.31719833 12.11834763 46.1063205 12.13391205 44.85874939 12.14994812 C41.00454973 12.21135792 37.15747904 12.34930903 33.30541992 12.48950195 C30.68768324 12.54469568 28.06983588 12.59488281 25.4519043 12.63989258 C19.0464918 12.76093995 12.64521496 12.94480131 6.24291992 13.17700195 Z M101.07778931 32.15657043 C100.17927087 33.96668182 100.17927087 33.96668182 100.24291992 35.17700195 C107.78597525 35.4567011 115.32768828 35.64885375 122.87475586 35.78125 C125.4397172 35.83645398 128.00433413 35.91143867 130.56811523 36.00683594 C134.26266366 36.14083139 137.9526292 36.20276106 141.64916992 36.2512207 C143.35901062 36.33638191 143.35901062 36.33638191 145.10339355 36.42326355 C149.86068334 36.42692157 152.96807048 36.35381581 156.55615234 33.04165649 C158.67860501 30.18136462 160.47028394 27.26542089 162.24291992 24.17700195 C163.57065311 22.11089242 164.90371424 20.04819382 166.24291992 17.98950195 C167.24660506 16.3876384 168.24804259 14.78435064 169.24291992 13.17700195 C161.66970107 12.64024733 154.10141976 12.27525139 146.51342773 12.0234375 C143.93962575 11.91842715 141.36705937 11.77553162 138.79760742 11.59277344 C118.71952946 10.20149358 109.83689693 13.46564265 101.07778931 32.15657043 Z M24.24291992 48.17700195 C24.24291992 65.66700195 24.24291992 83.15700195 24.24291992 101.17700195 C43.05291992 101.17700195 61.86291992 101.17700195 81.24291992 101.17700195 C81.24291992 83.68700195 81.24291992 66.19700195 81.24291992 48.17700195 C62.43291992 48.17700195 43.62291992 48.17700195 24.24291992 48.17700195 Z M94.24291992 48.17700195 C94.24291992 65.66700195 94.24291992 83.15700195 94.24291992 101.17700195 C113.05291992 101.17700195 131.86291992 101.17700195 151.24291992 101.17700195 C151.24291992 83.68700195 151.24291992 66.19700195 151.24291992 48.17700195 C132.43291992 48.17700195 113.62291992 48.17700195 94.24291992 48.17700195 Z " fill="#053F33" transform="translate(11.757080078125,84.822998046875)"/>
<path d="M0 0 C0.91765137 -0.02215576 1.83530273 -0.04431152 2.78076172 -0.06713867 C13.66206246 -0.03304328 22.57561997 4.24739465 30.4375 11.6875 C33.90030719 15.23495359 36.4483709 19.1321903 38.875 23.4375 C39.42027344 22.65246094 39.96554688 21.86742188 40.52734375 21.05859375 C47.66302082 11.11743681 55.28184283 2.76751146 67.875 0.4375 C95.20392318 -1.87444402 95.20392318 -1.87444402 104.17578125 5.26953125 C105.875 7.4375 105.875 7.4375 106.22265625 9.55859375 C104.43570402 24.0745208 97.74222359 38.27463609 86.40234375 47.71484375 C80.01424369 52.06902014 72.62188832 54.99899689 64.875 55.4375 C64.19179687 55.47617187 63.50859375 55.51484375 62.8046875 55.5546875 C58.58165521 55.68711708 54.7190934 55.29439264 50.58203125 54.42578125 C49.69620361 54.24184814 48.81037598 54.05791504 47.89770508 53.8684082 C47.2302124 53.7262085 46.56271973 53.58400879 45.875 53.4375 C45.9064209 54.99645996 45.9064209 54.99645996 45.93847656 56.58691406 C46.01095674 60.44826442 46.05682831 64.30955483 46.09472656 68.17138672 C46.11482393 69.84173702 46.14210683 71.51201713 46.17675781 73.18212891 C46.22536119 75.5851372 46.24798656 77.98721434 46.265625 80.390625 C46.28627014 81.13556213 46.30691528 81.88049927 46.32818604 82.64801025 C46.32969082 86.13659558 46.14505477 88.07277499 44.04199219 90.91308594 C41.12335802 92.96625761 39.36841217 92.95779543 35.875 92.4375 C34.2097168 91.4206543 34.2097168 91.4206543 32.875 89.4375 C32.61340678 86.63760871 32.52595662 84.06522071 32.58203125 81.26953125 C32.58839851 80.07731209 32.58839851 80.07731209 32.59489441 78.86100769 C32.6116807 76.32365979 32.64933176 73.78710762 32.6875 71.25 C32.70254695 69.52930835 32.71623534 67.80860424 32.72851562 66.08789062 C32.76158393 61.87078738 32.81336505 57.65427858 32.875 53.4375 C32.12806885 53.57897461 31.3811377 53.72044922 30.61157227 53.86621094 C29.62729248 54.04958008 28.6430127 54.23294922 27.62890625 54.421875 C26.6551001 54.60459961 25.68129395 54.78732422 24.67797852 54.97558594 C12.77084239 56.93781062 2.00593003 53.71503341 -8.125 47.4375 C-18.66307695 39.39481095 -25.64170709 25.80525872 -27.50390625 12.7890625 C-27.625 10.375 -27.625 10.375 -27.125 6.4375 C-20.11439042 -0.22416521 -9.07761482 0.11805926 0 0 Z M-14.125 14.4375 C-9.93963303 25.03814256 -5.70106456 35.51543505 5.30078125 40.546875 C10.92177068 42.40014057 15.98686618 42.7224097 21.875 42.4375 C18.48444595 39.77528719 14.87056679 37.53947062 11.1875 35.3125 C5.00309917 31.56559917 5.00309917 31.56559917 3.875 30.4375 C3.6875 27.5 3.6875 27.5 3.875 24.4375 C5.875 22.4375 5.875 22.4375 8.546875 22.05859375 C12.73227795 22.53510089 15.64240042 24.29017252 19.125 26.5 C21.35084797 27.89115498 23.56394761 29.18419851 25.875 30.4375 C26.535 30.1075 27.195 29.7775 27.875 29.4375 C22.87868751 21.39655958 18.26056786 15.8640412 9 13.125 C1.0893732 11.49952874 -6.39855185 12.34725316 -14.125 14.4375 Z M56.07421875 21.4375 C53.78436481 24.41048459 52.06817657 26.85797029 50.875 30.4375 C54.5099732 29.10510769 57.52659112 27.4442752 60.75 25.3125 C65.1400118 22.63262713 67.78366655 21.48287498 72.875 22.4375 C74.875 25.4375 74.875 25.4375 75.03515625 28.29296875 C73.25913731 33.10675745 69.70682026 34.4381287 65.3125 36.75 C63.7264269 37.61847328 62.14170698 38.48942416 60.55859375 39.36328125 C59.85275146 39.73880127 59.14690918 40.11432129 58.41967773 40.5012207 C57.90993408 40.81019287 57.40019043 41.11916504 56.875 41.4375 C56.875 41.7675 56.875 42.0975 56.875 42.4375 C65.54680152 42.8571033 73.17505311 41.98790949 80.125 36.375 C86.50812339 30.25030265 90.27416625 23.08200223 91.875 14.4375 C79.36528599 10.73091807 65.3664707 11.11725488 56.07421875 21.4375 Z " fill="#053F33" transform="translate(60.125,-0.4375)"/>
</svg>
