<svg xmlns="http://www.w3.org/2000/svg" id="Layer_1" width="13260.28" height="856.24" data-name="Layer 1" viewBox="0 0 13260.28 856.24"><path d="M5.32 500.61s364.25 366.48 1614.8 313.8c280.03-11.8 551.13-101.96 782.86-259.61 316.77-215.5 829.88-512.25 1016.19-331.39 11.7 11.35 19.71 14.51 24.16 30.19 6.21 21.89-12.27 77-84.57 56.57-105.14-29.71-49.06-198.21 28.65-243.64 0 0 371.16-271.98 1369.14 351.57 521.98 326.14 1003.64 397.7 1466.78 427.12 399.03 25.34 735.34-89.16 1094.82-264.2 192.04-93.51 407.19-217.1 627.85-327.8 286.48-143.72 630.21-154.08 1088 68.57 250.85 122 721.52 316.95 1227.11 326.75 218.58 4.24 533.97-56.4 761.47-239.13 131.32-105.48 348.59-231.97 520.95-150.86 58.29 27.43 44.57 91.43-11.55 97.93-65.88 7.63-95.3-166.5 66.29-201.14 164.86-35.34 548.93 63.46 1051.43 251.43 515.84 192.96 603.43-89.14 603.43-89.14" style="fill:none;stroke:#a3c539;stroke-miterlimit:10;stroke-width:15px"/></svg>